<svg xmlns="http://www.w3.org/2000/svg" width="1920" height="1080" viewBox="0 0 1920 1080"><path fill="#78a2b3" d="M0 0h1920v1080H0z"/><g fill="none" stroke-linecap="round" stroke-linejoin="round" stroke-width="12.37"><path stroke="#ff00e6" d="M186.8 1080c45.5-56.9 97.5-111.4 155.3-162.6 72.4-64.2 154.6-124.1 244.3-177.9 173.7-104.2 373.5-185.3 593.8-241.2s456.1-84.7 696.9-84.7q21.5 0 43 .3"/><path stroke="#9500ff" d="M267.9 1080a1288.3 1288.3 0 0 1 118-119c69.5-61.7 148.5-119.2 234.8-170.9C789 689.2 982.8 610.5 1196.8 556.2c216.2-54.8 445.1-82.6 680.3-82.6q21.5 0 43 .3"/><path stroke="#0040ff" d="M351.7 1080q36.7-38.7 78-75.4c66.5-59 142.3-114.2 225.3-163.9 162.8-97.6 350.7-173.8 558.4-226.5 210.8-53.5 434.1-80.6 663.6-80.6q21.5 0 43 .3"/><path stroke="#2bff00" d="M439 1080q16.8-16.1 34.4-31.7c63.6-56.5 136.2-109.3 215.8-157 157.3-94.3 339.2-168.1 540.7-219.2 205.4-52.1 423.1-78.5 647-78.5q21.5 0 43 .3"/><path stroke="#fff700" d="M530.9 1080c57.4-49.4 122.1-95.9 192.7-138.2 151.8-91.1 327.8-162.3 523.1-211.8 200-50.7 412.1-76.4 630.4-76.4q21.5 0 43 .3"/><path stroke="#ff8000" d="M628.5 1080a1386.9 1386.9 0 0 1 129.4-87.6c146.4-87.8 316.4-156.6 505.4-204.5 194.6-49.3 401.1-74.4 613.8-74.4q21.5 0 43 .4"/><path stroke="red" d="M733.8 1080c280.9-188.1 689-306.4 1143.3-306.4q21.6 0 43 .4"/></g><path fill="#78a2b3" stroke="#fff" stroke-linecap="round" stroke-linejoin="round" stroke-width="12" d="M1176.2 333.6q3.2 36.2 7.4 73.3 1.6 20.4 4.3 41.6.9 7.2 1.7 13.5l-14.1 16.1a156.9 156.9 0 0 0-9 14.2 154.1 154.1 0 0 0-13.5 30.5q-23.4 75.5 42.6 151.8c-1.9 13.4-2.4 46.2 14 66.8a235.5 235.5 0 0 0 24.7 26.6l26.9-32.3q68.4 52.1 198.1 92.5 64.7 20.6 115.6 30.1 11.2 48.3 50.5 63 20.4 8 37 5.2-1.9-27.3-19.5-49.4l-17.1-16.1q19.4-3.8 31.4-14.5t13.3-22.4q-38.8-26.6-69.9-15.8-15.4 5.7-23 16.2-113.6-38.4-161-141.8-23.8-51.6-25.9-114.2t-58.1-98.6q-55.9-36.1-98.2-21.2l-16.3-33.8-17.1-33.2z"/><path fill="#fff" d="M1228.5 568.6a13.7 13.7 0 0 0 5.4 15.5 11.7 11.7 0 0 0 9.3.2 10.6 10.6 0 0 0 6.3-5.6 11.1 11.1 0 0 0-5.4-15.5 10.6 10.6 0 0 0-8.4-.5 11.7 11.7 0 0 0-7.2 5.9z"/></svg>